inDegrees=no
num_controls=7
num_derivatives=13
num_iterations=87
num_multipliers=7
num_parameters=0
num_slacks=7
num_states=26
objective=0.448465
objective_accelerations=0.049011
objective_balance=0.007752
objective_effort=0.037064
objective_height=0.349695
objective_ligament=0.004942
solver_duration=1274.976820
status=Solve_Succeeded
success=true
DataType=double
version=3
OpenSimVersion=4.5
endheader
time	/jointset/ground_pelvis/pelvis_tilt/value	/jointset/ground_pelvis/pelvis_tx/value	/jointset/ground_pelvis/pelvis_ty/value	/jointset/hip_l/hip_flexion_l/value	/jointset/hip_l/hip_adduction_l/value	/jointset/hip_l/hip_rotation_l/value	/jointset/back/lumbar_extension/value	/jointset/patellofemoral_l/patellar_flexion_l/value	/jointset/knee_l/knee_flexion_l/value	/jointset/knee_l/knee_adduction_l/value	/jointset/knee_l/knee_rotation_l/value	/jointset/ankle_l/ankle_angle_l/value	/jointset/subtalar_l/subtalar_angle_l/value	/jointset/ground_pelvis/pelvis_tilt/speed	/jointset/ground_pelvis/pelvis_tx/speed	/jointset/ground_pelvis/pelvis_ty/speed	/jointset/hip_l/hip_flexion_l/speed	/jointset/hip_l/hip_adduction_l/speed	/jointset/hip_l/hip_rotation_l/speed	/jointset/back/lumbar_extension/speed	/jointset/patellofemoral_l/patellar_flexion_l/speed	/jointset/knee_l/knee_flexion_l/speed	/jointset/knee_l/knee_adduction_l/speed	/jointset/knee_l/knee_rotation_l/speed	/jointset/ankle_l/ankle_angle_l/speed	/jointset/subtalar_l/subtalar_angle_l/speed	/forceset/tau_hip_flexion_l	/forceset/tau_hip_adduction_l	/forceset/tau_hip_rotation_l	/forceset/tau_knee_flexion_l	/forceset/tau_ankle_angle_l	/forceset/tau_subtalar_angle_l	/forceset/tau_lumbar_extension	lambda_cid13_p0	lambda_cid13_p1	lambda_cid13_p2	lambda_cid13_p3	lambda_cid13_p4	lambda_cid13_p5	lambda_cid14_p0	/jointset/ground_pelvis/pelvis_tilt/accel	/jointset/ground_pelvis/pelvis_tx/accel	/jointset/ground_pelvis/pelvis_ty/accel	/jointset/hip_l/hip_flexion_l/accel	/jointset/hip_l/hip_adduction_l/accel	/jointset/hip_l/hip_rotation_l/accel	/jointset/back/lumbar_extension/accel	/jointset/patellofemoral_l/patellar_flexion_l/accel	/jointset/knee_l/knee_flexion_l/accel	/jointset/knee_l/knee_adduction_l/accel	/jointset/knee_l/knee_rotation_l/accel	/jointset/ankle_l/ankle_angle_l/accel	/jointset/subtalar_l/subtalar_angle_l/accel	gamma_cid13_p0	gamma_cid13_p1	gamma_cid13_p2	gamma_cid13_p3	gamma_cid13_p4	gamma_cid13_p5	gamma_cid14_p0
0	-0.1596852781266457	0.05839549755128874	0.8979827014735522	0.3774924667018715	-0.2593707502633953	-0.2689848482474684	-0.01265067647494873	0.03223648243721461	0.03223648243721463	-0.1745320089170265	0.1707243052205247	-0.04231377076293093	-0.009541464415368201	0	0	0	0	0	0	0	0	0	0	0	0	0	0.1587172758948727	-0.07169496812460294	-0.05345534866508782	-0.3215465054719705	0.3358201285515339	-0.06045455526533886	-0.09975522241350042	64.94766722219077	8.617622629837397	5.380889369566217	-10.85076496702549	-591.2427525836696	-61.69458355004145	-38.95483053224981	-4.320574900600395	-2.039703018376514	-1.082983279533411	12.16442772469094	-1.1954172662636	3.002792852183034	-5.795825353966075	8.65674519644333	8.656745196458424	0.0622682651649705	-0.001083228024375077	0.9080416898957149	-1.013688318684082	-7.366218348650697e-08	1.021735956332497e-07	1.032903083497719e-07	5.361715712994083e-08	-1.445406758113897e-07	-3.513190635433544e-08	-1.503566213977621e-08
0.01	-0.1598937268961235	0.05829271220081805	0.8979294595038305	0.3780892603301545	-0.2594305603864817	-0.2688359195240517	-0.01294201912986565	0.03266205582385123	0.03266205582385129	-0.1745308280027811	0.1707229762329161	-0.04227235442810812	-0.009593092121045064	-0.04142173016851039	-0.02067358251810994	-0.01063941166932796	0.1191533827602933	-0.0119208838665816	0.02957963180174817	-0.05793111009349908	0.08501314141273321	0.0850131414127708	0.0002558944726079844	-0.0001110316371047025	0.008097301763817337	-0.01032706120394609	0.1452041200632983	-0.07991084597391018	-0.0498661170004031	-0.2984448769409511	0.2979366118284846	-0.03912162514837682	-0.09033205010357165	53.55984237664633	1.57027063695464	6.249007332843389	-2.553875741421252	-591.0840244460585	-74.20788497286284	-38.96690646714301	-4.012773659277932	-2.098652008696989	-1.053101677515604	11.75998373079149	-1.184278764392207	2.904619476854256	-5.74114070355654	8.408371233632087	8.408371233628294	0.01023669688280229	0.007091758990123018	0.7326731531600126	-1.042469828379931	-6.335923261140044e-08	9.785568992962218e-08	1.105063270706152e-07	3.748851174044649e-08	-1.408490708077425e-07	2.394774219285081e-10	-1.802535154569075e-08
0.02	-0.1605083532841468	0.05797969779713252	0.8977700871040389	0.379871425821859	-0.2596083503117411	-0.2683973802560808	-0.01380255025902053	0.03393471514860397	0.03393471514860397	-0.1745264908120946	0.1707251779070451	-0.04215554532894006	-0.009748041400187393	-0.08123552370908628	-0.04204581064297089	-0.02122608601398093	0.2370743726843054	-0.02359596043462035	0.05792210891083827	-0.1138376948475891	0.1694171876232172	0.1694171876232171	0.0006312552881591236	0.0007061323475362311	0.01507855286904543	-0.02066431469309451	0.1316909642317239	-0.08812672382321744	-0.04627688533571906	-0.275343248409932	0.2600530951054292	-0.0177886950314148	-0.08090887779364289	42.24773882982519	-5.489349911054062	7.117954388997014	5.633035263858838	-589.7527201995272	-86.62092145361814	-39.00323886260036	-3.998987575013789	-2.179432139726718	-1.072435814598413	11.91794915743471	-1.146255806553678	2.755361913651419	-5.390920286084517	8.534926155993491	8.534926155993524	0.08616153375156049	0.184555896324752	0.6848315581778632	-1.015726775724546	-5.305628173629391e-08	9.35377842259947e-08	1.177223457914584e-07	2.135986635095215e-08	-1.371574658040954e-07	3.561086119819246e-08	-2.10150409516053e-08
0.03	-0.1615140473079704	0.05745225497828231	0.8975052590327504	0.3828226165328608	-0.2599012386616035	-0.2676803383854874	-0.01521029850749201	0.03604518414148826	0.03604518414148825	-0.1745179011412972	0.1707380136809697	-0.04197226043951059	-0.01000550157280014	-0.1197032749469958	-0.06327897676394205	-0.03171166628632126	0.3525157912739488	-0.03490948301757316	0.08541293582606543	-0.1672316212103079	0.2522483040707023	0.2522483040707014	0.001075441807583091	0.001790213314526586	0.02161494807483317	-0.03074930947568551	0.1260546940475084	-0.08233654176987906	-0.04563355685471975	-0.2714563121456529	0.2580872011261014	-0.02096402236102635	-0.07599464321526316	41.53386221516335	-4.101153697350809	7.028957352268646	4.904567283217109	-589.9137510969866	-82.96813247214845	-39.06333003533593	-3.740674789459898	-2.070688187009951	-1.032467256514932	11.26003197639937	-1.113080351885933	2.734926392024327	-5.241578765903683	8.092962571773592	8.092962571773453	0.0218850886807626	0.0596965716604857	0.6435195700344458	-0.9931519666470753	-8.255486995841416e-08	1.363363799565149e-07	1.520958051017748e-07	4.5900623490951e-08	-2.536281602717187e-07	3.944912275612699e-08	-2.560729932067344e-08
0.04	-0.1628984200224292	0.05671739463047686	0.8971364055341455	0.3869087801830929	-0.2603050982108395	-0.2666905915834287	-0.01713757601049831	0.03897111593537692	0.03897111593537691	-0.1745052020297769	0.1707595627395191	-0.0417225163843722	-0.01036146492066294	-0.1569712618361194	-0.08352931643401934	-0.04203117147718557	0.4640689605303996	-0.04579020030931934	0.112463095203931	-0.2177435457545515	0.3325097478240906	0.3325097478240884	0.001453143432724943	0.002448789272488624	0.02837038601082956	-0.04036494974310445	0.1204184238632931	-0.07654635971654068	-0.04499022837372046	-0.2675693758813736	0.2561213071467737	-0.02413934969063785	-0.07108040863688263	40.88979674766296	-2.723606284785343	6.939861893719257	4.071670574623265	-589.0114452361456	-79.21798610547974	-39.14566166735402	-3.759034705256581	-1.982866849547939	-1.039220798303208	11.14029929079607	-1.059694748312352	2.667228406179092	-4.814519922389463	8.020991617174147	8.020991617174039	0.07286455489513859	0.09945489451902405	0.7286401042195922	-0.9218558726901341	-1.128741084711989e-07	1.801064499434092e-07	1.870292116407402e-07	7.127992501300127e-08	-3.725764279243167e-07	4.263721684564236e-08	-3.023260034877567e-08
0.05	-0.1646500910715316	0.0557843151824423	0.8966648602374092	0.3920929508784284	-0.2608155065426371	-0.2654339369252015	-0.01955631962422646	0.04268768539547423	0.04268768539547423	-0.1744890562965975	0.170787149631557	-0.04140472311294386	-0.01081128483567471	-0.1931784347946443	-0.1029822201236202	-0.05227485846935941	0.5722225695566053	-0.05621557583727426	0.1386616334883181	-0.265646032116969	0.4104090471919987	0.4104090471919947	0.001745672604204494	0.003132797681012359	0.03514656438839987	-0.04953509515044665	0.1140079636924282	-0.07452769370049071	-0.04403946055739445	-0.2621674186539205	0.2498565421624502	-0.02237821926206982	-0.06592991879327591	39.04346016477787	-3.181936415609845	7.032065538885242	4.507890455519381	-587.9371237746991	-79.08503007812776	-39.24830508616034	-3.523890338832127	-1.910834710208634	-1.016563716051529	10.57148403287074	-1.022602950090127	2.565210733820068	-4.724241262049522	7.615140629990393	7.615140629990192	0.002941857129950973	0.06248187018429238	0.6458443478913041	-0.9050518238720769	-1.200265370864731e-07	1.626815166652748e-07	2.008135589281346e-07	8.01479824919586e-08	-4.361376039776112e-07	4.26541696450196e-08	-3.373709028654204e-08
